<svg width="25" height="25" viewBox="0 0 25 25" fill="none" xmlns="http://www.w3.org/2000/svg">
<mask id="mask0_7_13" style="mask-type:alpha" maskUnits="userSpaceOnUse" x="0" y="0" width="25" height="25">
<rect x="0.904877" y="0.339355" width="24" height="24" fill="#D9D9D9"/>
</mask>
<g mask="url(#mask0_7_13)">
<path d="M12.9049 17.3394C13.1882 17.3394 13.4257 17.2435 13.6174 17.0519C13.809 16.8602 13.9049 16.6227 13.9049 16.3394C13.9049 16.056 13.809 15.8185 13.6174 15.6269C13.4257 15.4352 13.1882 15.3394 12.9049 15.3394C12.6215 15.3394 12.384 15.4352 12.1924 15.6269C12.0007 15.8185 11.9049 16.056 11.9049 16.3394C11.9049 16.6227 12.0007 16.8602 12.1924 17.0519C12.384 17.2435 12.6215 17.3394 12.9049 17.3394ZM11.9049 13.3394H13.9049V7.33936H11.9049V13.3394ZM12.9049 22.3394C11.5215 22.3394 10.2215 22.0769 9.00488 21.5519C7.78821 21.0269 6.72988 20.3144 5.82988 19.4144C4.92988 18.5144 4.21738 17.456 3.69238 16.2394C3.16738 15.0227 2.90488 13.7227 2.90488 12.3394C2.90488 10.956 3.16738 9.65602 3.69238 8.43936C4.21738 7.22269 4.92988 6.16436 5.82988 5.26436C6.72988 4.36436 7.78821 3.65186 9.00488 3.12686C10.2215 2.60186 11.5215 2.33936 12.9049 2.33936C14.2882 2.33936 15.5882 2.60186 16.8049 3.12686C18.0215 3.65186 19.0799 4.36436 19.9799 5.26436C20.8799 6.16436 21.5924 7.22269 22.1174 8.43936C22.6424 9.65602 22.9049 10.956 22.9049 12.3394C22.9049 13.7227 22.6424 15.0227 22.1174 16.2394C21.5924 17.456 20.8799 18.5144 19.9799 19.4144C19.0799 20.3144 18.0215 21.0269 16.8049 21.5519C15.5882 22.0769 14.2882 22.3394 12.9049 22.3394ZM12.9049 20.3394C15.1382 20.3394 17.0299 19.5644 18.5799 18.0144C20.1299 16.4644 20.9049 14.5727 20.9049 12.3394C20.9049 10.106 20.1299 8.21436 18.5799 6.66436C17.0299 5.11436 15.1382 4.33936 12.9049 4.33936C10.6715 4.33936 8.77988 5.11436 7.22988 6.66436C5.67988 8.21436 4.90488 10.106 4.90488 12.3394C4.90488 14.5727 5.67988 16.4644 7.22988 18.0144C8.77988 19.5644 10.6715 20.3394 12.9049 20.3394Z" fill="#C94545"/>
</g>
</svg>
