<svg width="24" height="25" viewBox="0 0 24 25" fill="none" xmlns="http://www.w3.org/2000/svg">
<mask id="mask0_1_25" style="mask-type:alpha" maskUnits="userSpaceOnUse" x="0" y="0" width="24" height="25">
<rect y="0.5" width="24" height="24" fill="#D9D9D9"/>
</mask>
<g mask="url(#mask0_1_25)">
<path d="M12 5.5C11.7167 5.5 11.4792 5.40417 11.2875 5.2125C11.0958 5.02083 11 4.78333 11 4.5V2.5C11 2.21667 11.0958 1.97917 11.2875 1.7875C11.4792 1.59583 11.7167 1.5 12 1.5C12.2833 1.5 12.5208 1.59583 12.7125 1.7875C12.9042 1.97917 13 2.21667 13 2.5V4.5C13 4.78333 12.9042 5.02083 12.7125 5.2125C12.5208 5.40417 12.2833 5.5 12 5.5ZM16.95 7.55C16.7667 7.36667 16.675 7.1375 16.675 6.8625C16.675 6.5875 16.7667 6.35 16.95 6.15L18.35 4.725C18.55 4.525 18.7875 4.425 19.0625 4.425C19.3375 4.425 19.575 4.525 19.775 4.725C19.9583 4.90833 20.05 5.14167 20.05 5.425C20.05 5.70833 19.9583 5.94167 19.775 6.125L18.35 7.55C18.1667 7.73333 17.9333 7.825 17.65 7.825C17.3667 7.825 17.1333 7.73333 16.95 7.55ZM20 13.5C19.7167 13.5 19.4792 13.4042 19.2875 13.2125C19.0958 13.0208 19 12.7833 19 12.5C19 12.2167 19.0958 11.9792 19.2875 11.7875C19.4792 11.5958 19.7167 11.5 20 11.5H22C22.2833 11.5 22.5208 11.5958 22.7125 11.7875C22.9042 11.9792 23 12.2167 23 12.5C23 12.7833 22.9042 13.0208 22.7125 13.2125C22.5208 13.4042 22.2833 13.5 22 13.5H20ZM12 23.5C11.7167 23.5 11.4792 23.4042 11.2875 23.2125C11.0958 23.0208 11 22.7833 11 22.5V20.5C11 20.2167 11.0958 19.9792 11.2875 19.7875C11.4792 19.5958 11.7167 19.5 12 19.5C12.2833 19.5 12.5208 19.5958 12.7125 19.7875C12.9042 19.9792 13 20.2167 13 20.5V22.5C13 22.7833 12.9042 23.0208 12.7125 23.2125C12.5208 23.4042 12.2833 23.5 12 23.5ZM5.65 7.55L4.225 6.15C4.025 5.95 3.925 5.70833 3.925 5.425C3.925 5.14167 4.025 4.90833 4.225 4.725C4.40833 4.54167 4.64167 4.45 4.925 4.45C5.20833 4.45 5.44167 4.54167 5.625 4.725L7.05 6.15C7.23333 6.33333 7.325 6.56667 7.325 6.85C7.325 7.13333 7.23333 7.36667 7.05 7.55C6.85 7.73333 6.61667 7.825 6.35 7.825C6.08333 7.825 5.85 7.73333 5.65 7.55ZM18.35 20.275L16.95 18.85C16.7667 18.65 16.675 18.4125 16.675 18.1375C16.675 17.8625 16.7667 17.6333 16.95 17.45C17.1333 17.2667 17.3625 17.175 17.6375 17.175C17.9125 17.175 18.15 17.2667 18.35 17.45L19.775 18.85C19.975 19.0333 20.0708 19.2667 20.0625 19.55C20.0542 19.8333 19.9583 20.075 19.775 20.275C19.575 20.475 19.3333 20.575 19.05 20.575C18.7667 20.575 18.5333 20.475 18.35 20.275ZM2 13.5C1.71667 13.5 1.47917 13.4042 1.2875 13.2125C1.09583 13.0208 1 12.7833 1 12.5C1 12.2167 1.09583 11.9792 1.2875 11.7875C1.47917 11.5958 1.71667 11.5 2 11.5H4C4.28333 11.5 4.52083 11.5958 4.7125 11.7875C4.90417 11.9792 5 12.2167 5 12.5C5 12.7833 4.90417 13.0208 4.7125 13.2125C4.52083 13.4042 4.28333 13.5 4 13.5H2ZM4.225 20.275C4.04167 20.0917 3.95 19.8583 3.95 19.575C3.95 19.2917 4.04167 19.0583 4.225 18.875L5.65 17.45C5.83333 17.2667 6.0625 17.175 6.3375 17.175C6.6125 17.175 6.85 17.2667 7.05 17.45C7.25 17.65 7.35 17.8875 7.35 18.1625C7.35 18.4375 7.25 18.675 7.05 18.875L5.65 20.275C5.45 20.475 5.20833 20.575 4.925 20.575C4.64167 20.575 4.40833 20.475 4.225 20.275ZM12 18.5C10.3333 18.5 8.91667 17.9167 7.75 16.75C6.58333 15.5833 6 14.1667 6 12.5C6 10.8333 6.58333 9.41667 7.75 8.25C8.91667 7.08333 10.3333 6.5 12 6.5C13.6667 6.5 15.0833 7.08333 16.25 8.25C17.4167 9.41667 18 10.8333 18 12.5C18 14.1667 17.4167 15.5833 16.25 16.75C15.0833 17.9167 13.6667 18.5 12 18.5ZM12 16.5C13.1 16.5 14.0417 16.1083 14.825 15.325C15.6083 14.5417 16 13.6 16 12.5C16 11.4 15.6083 10.4583 14.825 9.675C14.0417 8.89167 13.1 8.5 12 8.5C10.9 8.5 9.95833 8.89167 9.175 9.675C8.39167 10.4583 8 11.4 8 12.5C8 13.6 8.39167 14.5417 9.175 15.325C9.95833 16.1083 10.9 16.5 12 16.5Z" fill="#1C1B1F"/>
</g>
</svg>
