<svg width="24" height="25" viewBox="0 0 24 25" fill="none" xmlns="http://www.w3.org/2000/svg">
<mask id="mask0_1_13" style="mask-type:alpha" maskUnits="userSpaceOnUse" x="0" y="0" width="24" height="25">
<rect y="0.5" width="24" height="24" fill="#D9D9D9"/>
</mask>
<g mask="url(#mask0_1_13)">
<path d="M13.1 23.5C11.7 23.5 10.3875 23.2333 9.1625 22.7C7.9375 22.1667 6.87083 21.4458 5.9625 20.5375C5.05417 19.6292 4.33333 18.5625 3.8 17.3375C3.26667 16.1125 3 14.8 3 13.4C3 10.9667 3.775 8.82083 5.325 6.9625C6.875 5.10417 8.85 3.95 11.25 3.5C10.95 5.15 11.0417 6.7625 11.525 8.3375C12.0083 9.9125 12.8417 11.2917 14.025 12.475C15.2083 13.6583 16.5875 14.4917 18.1625 14.975C19.7375 15.4583 21.35 15.55 23 15.25C22.5667 17.65 21.4167 19.625 19.55 21.175C17.6833 22.725 15.5333 23.5 13.1 23.5Z" fill="#1C1B1F"/>
</g>
</svg>
